<svg xmlns="http://www.w3.org/2000/svg" viewBox="0 0 67.69 67.47"><defs><style>.cls-1{fill:#fff;}</style></defs><g id="Layer_2" data-name="Layer 2"><g id="Layer_1-2" data-name="Layer 1"><path class="cls-1" d="M33.73,61.85H8.43A2.81,2.81,0,0,1,5.62,59V8.43A2.81,2.81,0,0,1,8.43,5.62h25.3a2.81,2.81,0,1,0,0-5.62H8.43A8.44,8.44,0,0,0,0,8.43V59a8.45,8.45,0,0,0,8.43,8.44h25.3a2.81,2.81,0,1,0,0-5.62Z"/><path class="cls-1" d="M66.86,31.73,49.76,14.87a2.81,2.81,0,1,0-3.94,4L58,30.92H25.3a2.82,2.82,0,0,0,0,5.63H58L45.82,48.6a2.81,2.81,0,1,0,3.94,4l17.1-16.86a2.84,2.84,0,0,0,0-4Z"/></g></g></svg>