<svg xmlns="http://www.w3.org/2000/svg" viewBox="0 0 512 512"><defs><style>.cls-1{fill:#fff;}</style></defs><g id="Layer_2" data-name="Layer 2"><g id="Layer_1-2" data-name="Layer 1"><path class="cls-1" d="M432,234.67a16,16,0,0,1-16-16v-96A26.71,26.71,0,0,0,389.33,96h-160a16,16,0,0,1,0-32h160A58.71,58.71,0,0,1,448,122.67v96A16,16,0,0,1,432,234.67Z"/><path class="cls-1" d="M432,234.67a15.87,15.87,0,0,1-11.31-4.7l-37.33-37.33a16,16,0,0,1,11.31-27.31h74.66a16,16,0,0,1,11.31,27.31L443.31,230A15.87,15.87,0,0,1,432,234.67Z"/><path class="cls-1" d="M240,448H122.67A58.71,58.71,0,0,1,64,389.33v-96a16,16,0,0,1,32,0v96A26.71,26.71,0,0,0,122.67,416H240a16,16,0,0,1,0,32Z"/><path class="cls-1" d="M117.33,346.67H42.67a16,16,0,0,1-11.31-27.31L68.69,282a16,16,0,0,1,22.64,0l37.33,37.33a16,16,0,0,1-11.33,27.31Z"/><circle class="cls-1" cx="106.67" cy="53.33" r="53.33"/><path class="cls-1" d="M154.67,128h-96A58.71,58.71,0,0,0,0,186.67v10.66a16,16,0,0,0,16,16H197.33a16,16,0,0,0,16-16V186.67A58.71,58.71,0,0,0,154.67,128Z"/><path class="cls-1" d="M405.33,405.33A53.33,53.33,0,1,1,458.67,352,53.4,53.4,0,0,1,405.33,405.33Z"/><path class="cls-1" d="M496,512H314.67a16,16,0,0,1-16-16V485.33a58.71,58.71,0,0,1,58.66-58.66h96A58.71,58.71,0,0,1,512,485.33V496A16,16,0,0,1,496,512Z"/></g></g></svg>